<svg id="bagcilar-logo" xmlns="http://www.w3.org/2000/svg" xmlns:xlink="http://www.w3.org/1999/xlink" width="71" height="68" viewBox="0 0 71 68">
  <defs>
    <clipPath id="clip-path">
      <rect id="Rectangle_685" data-name="Rectangle 685" width="71" height="68" transform="translate(156.5 -6.022)" fill="#fff"/>
    </clipPath>
    <clipPath id="clip-path-2">
      <rect id="Rectangle_674" data-name="Rectangle 674" width="50.698" height="74.83" fill="none"/>
    </clipPath>
    <clipPath id="clip-path-7">
      <path id="Path_849" data-name="Path 849" d="M276.277,297.95a36.712,36.712,0,0,1-7.912,3.022c-.17.046,2.485-.027,2.467,1.1-.01.654-2.141,3.366-2.141,3.366a29.518,29.518,0,0,0,5.683-5.163,18.438,18.438,0,0,0,1.912-2.33l-.009,0" transform="translate(-268.358 -297.946)" fill="none"/>
    </clipPath>
  </defs>
  <g id="Mask_Group_1" data-name="Mask Group 1" transform="translate(-156.5 6.022)" clip-path="url(#clip-path)">
    <g id="Artwork_16" data-name="Artwork 16" transform="translate(192.675 42.741)">
      <g id="Group_450" data-name="Group 450" transform="translate(-25.349 -37.415)">
        <g id="Group_429" data-name="Group 429">
          <g id="Group_428" data-name="Group 428" clip-path="url(#clip-path-2)">
            <path id="Path_826" data-name="Path 826" d="M9.319,94.7a24.977,24.977,0,0,0-2.3,18.748M6.54,97.172S2.314,107.5,6.389,116.291M3.574,101.437A25.377,25.377,0,0,0,5.8,118.728M1.351,106.2a24.406,24.406,0,0,0,2.706,12.653M.7,113.571a21.612,21.612,0,0,0,2.15,6.344" transform="translate(-0.599 -80.742)" fill="none" stroke="#fff" stroke-linecap="round" stroke-miterlimit="3.864" stroke-width="0.138"/>
            <path id="Path_827" data-name="Path 827" d="M63.532,45.438S46.689,55.165,53.97,74.549M60.6,45.8s-14.271,9.585-8.4,27.861m4.31-26.215s-9.853,8.369-6.266,24.534M53.1,49.193a28.74,28.74,0,0,0-4.781,21.28" transform="translate(-40.82 -38.742)" fill="none" stroke="#fff" stroke-linecap="round" stroke-miterlimit="3.864" stroke-width="0.138"/>
          </g>
        </g>
        <path id="Path_828" data-name="Path 828" d="M48.889,221.687v5.907l2.518.728,1.027-2.255Z" transform="translate(-41.684 -189.016)" fill="#fff"/>
        <g id="Group_431" data-name="Group 431">
          <g id="Group_430" data-name="Group 430" clip-path="url(#clip-path-2)">
            <path id="Path_829" data-name="Path 829" d="M13.219,263.123l2,3.057s7.022.767,6.969.7-1.6-2.8-1.6-2.8L12.84,262.4Z" transform="translate(-10.948 -223.73)" fill="#fff"/>
          </g>
        </g>
        <path id="Path_830" data-name="Path 830" d="M34.9,296.9l2.872,2.863,5.912-.4-2.282-2.2Z" transform="translate(-29.757 -253.144)" fill="#fff"/>
        <path id="Path_831" data-name="Path 831" d="M59.65,319.1l2.943,2.414,6.361-.987-3.26-1.93Z" transform="translate(-50.859 -271.647)" fill="#fff"/>
        <path id="Path_832" data-name="Path 832" d="M84.939,336.191l3.612,1.92,5.991-2.106-2.917-1.146Z" transform="translate(-72.421 -285.51)" fill="#fff"/>
        <path id="Path_833" data-name="Path 833" d="M115.966,346.783l4.106,1,5.119-2.688-3.251-.793Z" transform="translate(-98.875 -293.565)" fill="#fff"/>
        <path id="Path_834" data-name="Path 834" d="M150.759,353.165l3.436.317,5.409-3.137-3.489.062Z" transform="translate(-128.541 -298.713)" fill="#fff"/>
        <path id="Path_835" data-name="Path 835" d="M183.043,349.53l3.841-.493,3.832-3.534-2.555.546Z" transform="translate(-156.067 -294.585)" fill="#fff"/>
        <path id="Path_836" data-name="Path 836" d="M217.478,342.422l3.559-1.321,2.308-3.19-2.431.907Z" transform="translate(-185.427 -288.111)" fill="#fff"/>
        <g id="Group_433" data-name="Group 433">
          <g id="Group_432" data-name="Group 432" clip-path="url(#clip-path-2)">
            <path id="Path_837" data-name="Path 837" d="M247.834,332.885l2.08-3.013,2.3-.987s-2.529,3.472-4.546,4.273Z" transform="translate(-211.167 -280.416)" fill="#fff"/>
          </g>
        </g>
        <path id="Path_838" data-name="Path 838" d="M71.727,242.59l1.542,2.881,2.22-5.771-1.084-2.229Z" transform="translate(-61.156 -202.474)" fill="#fff"/>
        <path id="Path_839" data-name="Path 839" d="M87.031,264.9l1.921,2.061,1.753-5.331-1.559-2.1Z" transform="translate(-74.205 -221.283)" fill="#fff"/>
        <path id="Path_840" data-name="Path 840" d="M105.564,284.2l3.26,2.008.493-4.987-1.974-2.027Z" transform="translate(-90.006 -238.052)" fill="#fff"/>
        <path id="Path_841" data-name="Path 841" d="M134.47,297.076l-.449,4.785,2.855,1.269-.071-4.335Z" transform="translate(-114.269 -253.295)" fill="#fff"/>
        <path id="Path_842" data-name="Path 842" d="M156.678,310.11l.493,4.406,3.357.9-1.692-4.361Z" transform="translate(-133.588 -264.408)" fill="#fff"/>
        <path id="Path_843" data-name="Path 843" d="M176.346,317.466l2.018,4.291,3.269-.08-2.855-3.7Z" transform="translate(-150.357 -270.679)" fill="#fff"/>
        <g id="Group_435" data-name="Group 435">
          <g id="Group_434" data-name="Group 434" clip-path="url(#clip-path-2)">
            <path id="Path_844" data-name="Path 844" d="M201.276,322.367s2.449,3.366,2.493,3.33,2.458-.475,2.458-.475l-3-2.476Z" transform="translate(-171.613 -274.858)" fill="#fff"/>
          </g>
        </g>
        <path id="Path_845" data-name="Path 845" d="M222.021,325.307l2.749-.009,2.308,1.463-2.432.7Z" transform="translate(-189.301 -277.357)" fill="#fff"/>
        <g id="Group_437" data-name="Group 437">
          <g id="Group_436" data-name="Group 436" clip-path="url(#clip-path-2)">
            <path id="Path_846" data-name="Path 846" d="M248.645,323.192l1.841,1.136c-.1.07,2.406-.837,2.406-.837a7.739,7.739,0,0,0-4.388-.405Z" transform="translate(-211.881 -275.367)" fill="#fff"/>
            <path id="Path_847" data-name="Path 847" d="M268.366,300.971a36.7,36.7,0,0,0,7.912-3.022,16.9,16.9,0,0,1-1.9,2.326,29.508,29.508,0,0,1-5.683,5.164s2.131-2.712,2.141-3.366c.017-1.128-2.638-1.055-2.467-1.1" transform="translate(-228.809 -254.036)" fill="#fff"/>
          </g>
        </g>
        <g id="Group_439" data-name="Group 439" transform="translate(39.549 43.91)">
          <g id="Group_438" data-name="Group 438" clip-path="url(#clip-path-7)">
            <path id="Path_848" data-name="Path 848" d="M193.306,263.86s1.5-.849,1.6-1.3c.052-.243-2.642.829-2.642.829Z" transform="translate(-203.479 -267.744)" fill="#fff"/>
          </g>
        </g>
        <path id="Path_850" data-name="Path 850" d="M162.477,25.39v25.2l4.37-2.15V22.958Z" transform="translate(-138.532 -19.574)" fill="#fff"/>
        <g id="Group_441" data-name="Group 441">
          <g id="Group_440" data-name="Group 440" clip-path="url(#clip-path-2)">
            <path id="Path_851" data-name="Path 851" d="M162.477,186.148l4.37-2.432a38.74,38.74,0,0,0,.053,4.723c.74,2.221,2.915,3.525,5.8,3.525a6.878,6.878,0,0,0,7.013-6.925c0-2.934-1.709-4.486-4.247-5.569a7.468,7.468,0,0,1,7.771,1.639c2.537,2.608,1.707,6.96,1.233,8.318-1.3,3.735-6.2,6.908-10.044,7.189-4.429.325-5.873-1.158-7.626-2.513l-4.321,2.125Z" transform="translate(-138.532 -152.632)" fill="#fff"/>
            <path id="Path_852" data-name="Path 852" d="M204.219,191.917l4.405-2.4v5.163s.247,3.3,4.37,3.278c0,0-5.445,4.969-8.353-.74a8.626,8.626,0,0,1-.432-1.93c-.026-.74.009-3.375.009-3.375" transform="translate(-174.106 -161.59)" fill="#fff"/>
            <path id="Path_853" data-name="Path 853" d="M204.325,2.431,208.7,0V20.984a10.207,10.207,0,0,1,5.392-1.53c5.664,0,10.643,3.957,10.643,9.621a9.7,9.7,0,0,1-3.824,8.071,11.225,11.225,0,0,0,1.374-5.974c0-3.331-3.251-7.277-8.088-7.277a11.937,11.937,0,0,0-5.463,1.621l-4.388,2.731Z" transform="translate(-174.213 0.001)" fill="#fff"/>
          </g>
        </g>
        <path id="Path_854" data-name="Path 854" d="M138.633,280.439h-2.548v.506l-.227-.121v-.632h2.775Z" transform="translate(-115.836 -238.9)" fill="#fff"/>
        <g id="Group_443" data-name="Group 443">
          <g id="Group_442" data-name="Group 442" clip-path="url(#clip-path-2)">
            <path id="Path_855" data-name="Path 855" d="M137.1,263.784a.866.866,0,0,1,.1.215.769.769,0,0,1,.034.228.78.78,0,0,1-.238.59.949.949,0,0,1-1.267-.027.911.911,0,0,1-.251-.664.807.807,0,0,1,.859-.859,1.238,1.238,0,0,1,.5.113,3.976,3.976,0,0,1,.695.439l.91.669-.126.21Zm-.744-.256a.662.662,0,0,0-.474.172.6.6,0,0,0-.181.455.583.583,0,0,0,.187.454.713.713,0,0,0,.5.171.639.639,0,0,0,.462-.172.59.59,0,0,0,.178-.445.6.6,0,0,0-.188-.457.675.675,0,0,0-.482-.177" transform="translate(-115.517 -224.467)" fill="#fff"/>
            <path id="Path_856" data-name="Path 856" d="M137.1,248.459a.87.87,0,0,1,.1.215.768.768,0,0,1,.034.227.78.78,0,0,1-.238.59.948.948,0,0,1-1.267-.027.91.91,0,0,1-.251-.664.807.807,0,0,1,.859-.859,1.226,1.226,0,0,1,.5.113,3.968,3.968,0,0,1,.695.439l.91.669-.126.21Zm-.744-.256a.663.663,0,0,0-.474.172.6.6,0,0,0-.181.455.582.582,0,0,0,.187.453.712.712,0,0,0,.5.171.64.64,0,0,0,.462-.172.591.591,0,0,0,.178-.445.6.6,0,0,0-.188-.457.675.675,0,0,0-.482-.177" transform="translate(-115.517 -211.401)" fill="#fff"/>
            <path id="Path_857" data-name="Path 857" d="M138.1,233.08h.219v1.8l-.662-.6-.2-.184q-.815-.749-1.171-.75a.534.534,0,0,0-.41.171.629.629,0,0,0-.158.446.572.572,0,0,0,.178.442.685.685,0,0,0,.484.164v.255h-.027a.836.836,0,0,1-.631-.239.889.889,0,0,1-.231-.646.906.906,0,0,1,.214-.63.718.718,0,0,1,.247-.178.82.82,0,0,1,.32-.059,1.961,1.961,0,0,1,1.152.66l.019.017.658.616Z" transform="translate(-115.518 -198.72)" fill="#fff"/>
            <path id="Path_858" data-name="Path 858" d="M1.409,473.464H1.94a1.566,1.566,0,0,0,.765-.135.486.486,0,0,0,.222-.451.545.545,0,0,0-.209-.485,1.427,1.427,0,0,0-.755-.142H1.409ZM0,474.6v-5.565H1.524a9.824,9.824,0,0,1,1.321.059,1.893,1.893,0,0,1,.641.211,1.179,1.179,0,0,1,.47.462,1.338,1.338,0,0,1,.161.661,1.109,1.109,0,0,1-.241.753,1.555,1.555,0,0,1-.769.426,1.194,1.194,0,0,1,.925.418,1.414,1.414,0,0,1,.334.988,1.582,1.582,0,0,1-.187.783,1.313,1.313,0,0,1-.539.524,2.317,2.317,0,0,1-.709.215,9.83,9.83,0,0,1-1.362.067Zm1.409-3.339h.3a1.641,1.641,0,0,0,.771-.125.456.456,0,0,0,.209-.426.484.484,0,0,0-.2-.44,1.527,1.527,0,0,0-.758-.129H1.409Z" transform="translate(0 -399.911)" fill="#fff"/>
          </g>
        </g>
        <path id="Path_859" data-name="Path 859" d="M41.55,469.034V474.6h3.41v-1.245H43.029v-.942H44.85v-1.191H43.029v-.966H44.96v-1.222Z" transform="translate(-35.427 -399.911)" fill="#fff"/>
        <path id="Path_860" data-name="Path 860" d="M77.817,469.034V474.6h3.4v-1.3H79.335v-4.266Z" transform="translate(-66.349 -399.911)" fill="#fff"/>
        <path id="Path_861" data-name="Path 861" d="M112.226,469.034V474.6h3.41v-1.245H113.7v-.942h1.821v-1.191H113.7v-.966h1.932v-1.222Z" transform="translate(-95.687 -399.911)" fill="#fff"/>
        <g id="Group_445" data-name="Group 445">
          <g id="Group_444" data-name="Group 444" clip-path="url(#clip-path-2)">
            <path id="Path_862" data-name="Path 862" d="M151.051,473.354h.255a1.935,1.935,0,0,0,1.3-.365,1.48,1.48,0,0,0,.414-1.167,1.5,1.5,0,0,0-.412-1.169,1.9,1.9,0,0,0-1.3-.374h-.255Zm-1.5,1.245v-5.565h1.159a9.481,9.481,0,0,1,1.841.122,2.593,2.593,0,0,1,.937.407,2.372,2.372,0,0,1,.8.939,3.27,3.27,0,0,1,0,2.627,2.445,2.445,0,0,1-.8.95,2.658,2.658,0,0,1-.92.4,4.82,4.82,0,0,1-.655.088q-.4.03-.948.03h-1.413Z" transform="translate(-127.509 -399.91)" fill="#fff"/>
            <path id="Path_863" data-name="Path 863" d="M194.689,456.978a.544.544,0,0,1,.171-.395.533.533,0,0,1,.387-.172.55.55,0,0,1,.4.166.57.57,0,0,1,.006.8.553.553,0,0,1-.409.163.532.532,0,0,1-.393-.168.544.544,0,0,1-.165-.394m-.21,1.294h1.533v5.565h-1.533Z" transform="translate(-165.818 -389.149)" fill="#fff"/>
            <path id="Path_864" data-name="Path 864" d="M216.507,474.6v-2.54l-1.946-3.026H216.3l.749,1.433.023.042a1.87,1.87,0,0,1,.163.429,1.356,1.356,0,0,1,.163-.414l.031-.057.741-1.433h1.744l-1.945,3.026v2.54Z" transform="translate(-182.94 -399.91)" fill="#fff"/>
          </g>
        </g>
        <path id="Path_865" data-name="Path 865" d="M259.457,469.034V474.6h3.41v-1.245h-1.931v-.942h1.821v-1.191h-1.821v-.966h1.931v-1.222Z" transform="translate(-221.22 -399.911)" fill="#fff"/>
        <g id="Group_447" data-name="Group 447">
          <g id="Group_446" data-name="Group 446" clip-path="url(#clip-path-2)">
            <path id="Path_866" data-name="Path 866" d="M293.979,472.081a2.71,2.71,0,0,0,.667.565,1.314,1.314,0,0,0,.655.19.756.756,0,0,0,.5-.163.512.512,0,0,0,.2-.413.533.533,0,0,0-.167-.419,2.2,2.2,0,0,0-.768-.317,2.458,2.458,0,0,1-1.153-.572,1.339,1.339,0,0,1-.34-.965,1.7,1.7,0,0,1,.536-1.3,1.949,1.949,0,0,1,1.384-.5,3.045,3.045,0,0,1,.869.124,2.815,2.815,0,0,1,.785.374l-.475,1.083a2,2,0,0,0-.53-.327,1.418,1.418,0,0,0-.537-.11.719.719,0,0,0-.446.128.4.4,0,0,0-.169.338.417.417,0,0,0,.148.329,1.552,1.552,0,0,0,.581.243l.068.019a2.844,2.844,0,0,1,1.22.549,1.416,1.416,0,0,1,.3.489,2,2,0,0,1-.475,2.053,2.195,2.195,0,0,1-1.551.538,2.762,2.762,0,0,1-1.06-.2,2.953,2.953,0,0,1-.916-.622Z" transform="translate(-250.071 -399.19)" fill="#fff"/>
            <path id="Path_867" data-name="Path 867" d="M331.621,456.978a.544.544,0,0,1,.171-.395.533.533,0,0,1,.388-.172.55.55,0,0,1,.4.166.569.569,0,0,1,.005.8.552.552,0,0,1-.408.163.534.534,0,0,1-.393-.168.544.544,0,0,1-.165-.394m-.21,1.294h1.533v5.565h-1.533Z" transform="translate(-282.57 -389.149)" fill="#fff"/>
            <path id="Path_868" data-name="Path 868" d="M2.948,407.98H3.63a2.014,2.014,0,0,0,.982-.173.625.625,0,0,0,.285-.579.7.7,0,0,0-.268-.623,1.828,1.828,0,0,0-.969-.184H2.948Zm-1.809,1.459v-7.146H3.1a12.559,12.559,0,0,1,1.7.076,2.444,2.444,0,0,1,.823.271,1.512,1.512,0,0,1,.6.593,1.717,1.717,0,0,1,.207.847,1.423,1.423,0,0,1-.31.966,1.991,1.991,0,0,1-.987.547,1.535,1.535,0,0,1,1.188.536,1.82,1.82,0,0,1,.429,1.269,2.036,2.036,0,0,1-.239,1.005,1.683,1.683,0,0,1-.693.673,2.97,2.97,0,0,1-.91.275,12.574,12.574,0,0,1-1.749.086Zm1.809-4.287h.39a2.1,2.1,0,0,0,.99-.161.585.585,0,0,0,.268-.546.621.621,0,0,0-.256-.566,1.957,1.957,0,0,0-.973-.166H2.948Z" transform="translate(-0.971 -343.005)" fill="#fff"/>
            <path id="Path_869" data-name="Path 869" d="M40.67,409.439l2.464-7.146h2.439l2.469,7.146H46.105l-.361-1.279H42.977l-.371,1.279Zm2.726-2.668h1.939l-.728-2.357-.093-.347-.151-.615c-.023.1-.043.184-.061.259s-.04.156-.066.244l-.122.459Z" transform="translate(-34.676 -343.005)" fill="#fff"/>
            <path id="Path_870" data-name="Path 870" d="M92.052,385.95h.639a.683.683,0,0,0,.061.3.605.605,0,0,0,.184.22,1.4,1.4,0,0,0,1.314-.005.588.588,0,0,0,.179-.213.673.673,0,0,0,.061-.3h.63a1.742,1.742,0,0,1-.117.657,1.382,1.382,0,0,1-.313.481,1.514,1.514,0,0,1-1.1.362,1.548,1.548,0,0,1-1.114-.366,1.365,1.365,0,0,1-.312-.476,1.762,1.762,0,0,1-.112-.657m1.479,6.926v-1.5h3.826l.005.161,0,.26a3.985,3.985,0,0,1-.973,2.867,3.608,3.608,0,0,1-2.74,1.019,5.058,5.058,0,0,1-.817-.063,3.648,3.648,0,0,1-.73-.2,3.392,3.392,0,0,1-1.205-.8,3.679,3.679,0,0,1-.788-1.217,4.059,4.059,0,0,1-.01-2.941,3.524,3.524,0,0,1,.81-1.2,3.578,3.578,0,0,1,1.242-.8,4.151,4.151,0,0,1,1.5-.268,4.032,4.032,0,0,1,1.854.412,3.592,3.592,0,0,1,1.361,1.237l-1.689.81a2.052,2.052,0,0,0-.681-.617,1.766,1.766,0,0,0-.847-.2,1.726,1.726,0,0,0-1.377.587,2,2,0,0,0-.376.688,2.966,2.966,0,0,0-.127.907,2.4,2.4,0,0,0,.5,1.606,1.712,1.712,0,0,0,1.379.59,2.029,2.029,0,0,0,1.235-.363,1.414,1.414,0,0,0,.581-.976Z" transform="translate(-76.595 -329.071)" fill="#fff"/>
            <path id="Path_871" data-name="Path 871" d="M151.12,401.66v2.129a2.906,2.906,0,0,0-.8-.649,1.826,1.826,0,0,0-.849-.209,1.751,1.751,0,0,0-1.357.574,2.129,2.129,0,0,0-.522,1.489,2,2,0,0,0,.527,1.418,1.764,1.764,0,0,0,1.352.567,1.809,1.809,0,0,0,.844-.2,2.963,2.963,0,0,0,.806-.66v2.133a4.942,4.942,0,0,1-.922.336,4.023,4.023,0,0,1-.451.083,3.83,3.83,0,0,1-.476.029,4.029,4.029,0,0,1-1.093-.139,2.944,2.944,0,0,1-.9-.422,3.576,3.576,0,0,1-1.217-1.347,3.934,3.934,0,0,1-.422-1.835,4.022,4.022,0,0,1,.263-1.484,3.622,3.622,0,0,1,.8-1.221,3.331,3.331,0,0,1,1.144-.777,3.727,3.727,0,0,1,1.417-.261,3.913,3.913,0,0,1,.932.11,4.584,4.584,0,0,1,.917.339" transform="translate(-124.178 -342.083)" fill="#fff"/>
          </g>
        </g>
        <rect id="Rectangle_683" data-name="Rectangle 683" width="1.969" height="7.146" transform="translate(28.585 59.288)" fill="#fff"/>
        <path id="Path_872" data-name="Path 872" d="M217.235,409.439v-7.146h1.949v5.477h2.42v1.669Z" transform="translate(-185.22 -343.005)" fill="#fff"/>
        <g id="Group_449" data-name="Group 449">
          <g id="Group_448" data-name="Group 448" clip-path="url(#clip-path-2)">
            <path id="Path_873" data-name="Path 873" d="M250.987,409.439l2.464-7.146h2.44l2.469,7.146h-1.937l-.361-1.279h-2.766l-.371,1.279Zm2.726-2.668h1.939l-.728-2.357-.093-.347-.151-.615c-.023.1-.043.184-.061.259s-.039.156-.066.244l-.122.459Z" transform="translate(-213.998 -343.005)" fill="#fff"/>
            <path id="Path_874" data-name="Path 874" d="M307.4,405.672h.36a1.554,1.554,0,0,0,.918-.215.782.782,0,0,0,.29-.673.948.948,0,0,0-.27-.764,1.425,1.425,0,0,0-.909-.227H307.4Zm-1.829,3.767v-7.146h2.036a8.6,8.6,0,0,1,1.669.108,2.146,2.146,0,0,1,.81.371,1.948,1.948,0,0,1,.588.749,2.355,2.355,0,0,1,.213,1,2.123,2.123,0,0,1-.405,1.344,2,2,0,0,1-1.19.7l1.944,2.881h-2.2l-1.637-2.8v2.8Z" transform="translate(-260.541 -343.005)" fill="#fff"/>
          </g>
        </g>
      </g>
    </g>
  </g>
</svg>
