  <svg role="img" aria-labelledby="icon-1768814446898-661"
    class="a-icon icon--bugabooLogo  icon-1768814446898-661"
    viewBox="0 0 714.18 139.07" width=140px height=40px >

    <title id="icon-1768814446898-661">Bugaboo logo</title>


    

    <path d="M141.82 65.1A57 57 0 0 0 85.49 8.2a56.26 56.26 0 0 0-67.25 89.54 58.18 58.18 0 0 0 99.21 14 56.81 56.81 0 0 0 24.37-46.64zM95.89 22.31a58.44 58.44 0 0 0-31.28-4.67A51.28 51.28 0 0 1 85 13.49h1.26a52.54 52.54 0 0 1 9.63 8.82zm15.26 21.58a50.14 50.14 0 0 1-4.68 68.1 51.59 51.59 0 0 1-42.89.11 56.37 56.37 0 0 0 48.94-55.81 55.64 55.64 0 0 0-1.37-12.4zM57 108.49a51.55 51.55 0 0 1-15.61-71.21Q42.6 35.4 44 33.62a50.2 50.2 0 0 1 61 3.85 52.22 52.22 0 0 1-48 71zM13.78 75.4a58.55 58.55 0 0 0 1.52 13.25 52.2 52.2 0 0 1 62.38-80 56.72 56.72 0 0 0-31 14.3 58.29 58.29 0 0 0-32.9 52.45zm14.63 25a50.19 50.19 0 0 1 3-54.66 56.86 56.86 0 0 0 15.87 62 52.31 52.31 0 0 1-18.87-7.3zM72 125.68a50.26 50.26 0 0 1-38.45-17.91 56.1 56.1 0 0 0 19.9 4.71A56.64 56.64 0 0 0 92 121.56a49.85 49.85 0 0 1-20 4.12zM104.28 27a56.59 56.59 0 0 0-10.67-12.78 51.56 51.56 0 0 1 33.1 81.1A58.16 58.16 0 0 0 104.28 27zm111.93 3a36.86 36.86 0 0 0-24.62 9.53v-29h-12.44l-.08 56.55A37.15 37.15 0 1 0 216.29 30zm0 61.93a25.15 25.15 0 0 1-24.74-23.13c0-2.2.12-4.76.12-4.76a24.82 24.82 0 1 1 24.62 27.89zm205.57-24.85A37.11 37.11 0 1 0 362 96.31a32.81 32.81 0 0 0-1.28 9.08 33.56 33.56 0 1 0 57.77-23.12 37 37 0 0 0 3.29-15.19zm-61.94 0a24.82 24.82 0 1 1 49.63-1v1a24.28 24.28 0 0 1-1.36 7.83A33.4 33.4 0 0 0 367.61 85a24.7 24.7 0 0 1-7.77-17.92zM406 79.61a24.64 24.64 0 0 1-33.66 8.94c-.22-.12-.43-.25-.64-.38a28.23 28.23 0 0 1 34.3-8.56zm16.59 25.77a28.39 28.39 0 1 1-56.78 0 28.16 28.16 0 0 1 .68-6 36.6 36.6 0 0 0 18.15 4.86A37 37 0 0 0 415.84 87a28.2 28.2 0 0 1 6.76 18.4zM555 30a36.67 36.67 0 0 0-24.6 9.53v-29H518l-.1 56.55A37.13 37.13 0 1 0 555.05 30zm0 61.93a24.9 24.9 0 0 1-24.74-23.13l.16-4.76A24.81 24.81 0 1 1 555 91.93zm125.39-65.06a33.46 33.46 0 0 0-23.74 7.63 37.12 37.12 0 1 0 9.92 57.37 33.54 33.54 0 1 0 13.82-65zm-43.09 65a24.83 24.83 0 0 1 3.55-49.54 23.88 23.88 0 0 1 7.72 1.93A33.13 33.13 0 0 0 644.5 58c-.06.81-.08 1.62-.08 2.41a33.51 33.51 0 0 0 11.33 25.08 24.69 24.69 0 0 1-18.45 6.4zm26.54-23a24.64 24.64 0 0 1-4.65 12.67 28.34 28.34 0 0 1-6.09-34.87 24.78 24.78 0 0 1 10.73 22.23zm42.47-6.54A28.38 28.38 0 0 1 676 88.64a27.91 27.91 0 0 1-6-1.09 37.19 37.19 0 0 0 6.15-17.81 36.65 36.65 0 0 0-14.9-32.3A28.12 28.12 0 0 1 680 32a28.45 28.45 0 0 1 26.3 30.36zM469.23 30a37.13 37.13 0 0 0 0 74.25 36.66 36.66 0 0 0 24.63-9.54v8.21h12.42l.07-35.78A37.17 37.17 0 0 0 469.23 30zm24.63 40.16a24.82 24.82 0 1 1 .14-4.76zM324.91 69A24.78 24.78 0 0 1 276 72.26c0-.13-.47-3.15-.47-3.15V30.76h-12.41V69a37.12 37.12 0 0 0 74.13.29V30.75h-12.34zm379.93-47.52a.73.73 0 0 1 .63-.8h2c1.58 0 2.54.7 2.54 2.3a2 2 0 0 1-1.89 1.94l1.73 1.85a.56.56 0 0 1 .2.45.78.78 0 0 1-.75.79.74.74 0 0 1-.6-.27L706.4 25v2.2a.76.76 0 0 1-.77.76.77.77 0 0 1-.77-.76zm1.54 2.42h1a.88.88 0 0 0 1-.72.48.48 0 0 0 0-.17.85.85 0 0 0-.8-.91h-1.26z"></path><path d="M700.18 24.35a7 7 0 1 0 7-7 7 7 0 0 0-7 7zm1.53 0a5.46 5.46 0 1 1 5.45 5.47 5.47 5.47 0 0 1-5.44-5.47z"></path>
  </svg>
