<svg width="300" height="120" viewBox="0 0 300 120" fill="none" xmlns="http://www.w3.org/2000/svg">
<path d="M105.422 73.0717C101.898 73.0717 98.3734 73.0717 94.849 73.0717C94.2806 73.0717 93.7121 73.1284 93.1437 73.2417C92.4615 73.2417 91.9499 73.0717 91.2678 73.0717C87.6298 73.0717 83.9349 73.0717 80.1831 73.0717C85.1286 70.8626 89.3919 67.9737 92.9731 63.8952C96.3838 60.3266 98.9418 56.0782 100.818 51.6599C100.988 51.3201 100.988 51.1501 101.159 50.6403C97.7481 50.6403 94.5079 50.6403 91.2678 50.6403C90.7562 50.8103 90.4151 51.3201 90.074 51.8299C86.6634 58.4573 81.5474 63.0456 74.385 65.4246C68.928 67.124 63.3004 67.4639 58.0138 65.9345C48.805 63.7253 42.3248 57.9475 39.2552 48.771C38.232 45.7122 40.1078 42.8233 43.5185 42.8233C45.5649 42.9933 47.7819 43.5031 49.8283 43.8429C55.2853 44.8625 60.5718 45.8822 66.0289 45.5423C75.7493 44.8625 84.617 42.3135 91.4383 34.6665C94.6785 31.0978 96.7249 27.0194 98.2597 22.4312C100.079 16.88 101.955 11.2721 103.887 5.60762C104.228 4.75794 104.91 3.90827 105.422 3.05859C105.536 3.05859 105.649 3.05859 105.763 3.05859C105.763 3.73833 105.763 4.36142 105.763 4.92787C105.763 26.9061 105.763 48.941 105.763 71.0325C105.763 71.5989 105.763 72.1654 105.763 72.7318C105.649 72.8451 105.536 72.9584 105.422 73.0717Z" fill="#7AB754"/>
<path d="M37.3792 35.6861C38.0613 25.8299 41.4719 17.5031 49.9986 11.8953C53.1819 9.74275 56.7631 8.43992 60.7422 7.98676C64.835 7.64689 68.7573 7.81682 72.8501 8.32662C76.6018 8.66649 80.183 9.00637 83.9347 8.83643C87.5159 8.83643 90.9266 8.15669 94.5078 7.81682C94.8488 7.81682 95.1899 7.81682 95.7015 7.81682C92.8025 11.2155 92.6319 15.6338 91.2676 19.5423C88.3686 28.0391 82.9115 33.6469 73.8732 35.3463C70.4626 35.8561 66.8814 36.1959 63.3002 36.1959C59.8896 36.026 56.3083 35.3463 52.8977 35.1763C48.8049 34.8365 44.7121 34.6099 40.6193 34.4966C39.5961 34.4966 38.5729 35.1763 37.3792 35.6861Z" fill="#7AB754"/>
<path d="M246.623 67.1237C244.406 69.5028 242.36 71.3721 239.461 72.2218C232.298 74.091 224.113 71.712 221.555 61.6858C220.304 56.8144 219.849 51.8863 220.19 46.9015C220.361 42.8231 220.873 38.9146 222.578 35.3459C224.795 30.7577 228.205 28.3786 233.151 27.6989C238.437 27.1891 242.701 28.3786 246.453 32.457C246.794 31.0976 246.964 29.908 247.305 28.7185C249.863 28.7185 252.251 28.7185 254.979 28.7185C254.979 30.078 254.809 31.4374 254.809 32.7969C254.809 46.6183 254.809 60.383 254.809 74.0911C254.809 75.9603 254.638 77.8296 254.297 79.529C253.274 84.2871 249.011 87.6858 243.895 88.1956C241.507 88.3656 239.12 88.5355 236.732 88.3656C234.515 88.1956 232.128 87.6858 230.081 86.8362C225.989 85.3068 223.942 81.908 223.09 77.9995C222.919 77.4897 223.09 77.1499 223.09 76.6401C226.159 76.6401 229.058 76.6401 232.128 76.6401C232.298 77.1499 232.298 77.8296 232.469 78.3394C233.492 82.2479 236.903 83.4375 240.654 82.9277C244.747 82.078 246.453 80.0388 246.623 75.9603C246.623 73.0714 246.623 70.3525 246.623 67.1237ZM228.035 49.2806C228.717 53.0191 228.888 56.9276 229.911 60.6662C230.593 64.2348 233.321 66.2741 236.391 66.444C240.825 66.6139 243.724 65.2544 245.088 61.5159C246.111 59.3067 246.623 56.7577 246.794 54.3786C247.362 49.7337 247.135 45.0889 246.111 40.444C244.918 35.5159 243.212 33.8165 238.096 33.3067C233.833 32.7969 230.934 34.4963 229.74 38.7446C228.888 42.1433 228.717 45.7119 228.035 49.2806Z" fill="#7AB855"/>
<path d="M51.363 73.0717C53.921 74.0913 56.1379 75.2808 58.0138 77.49C60.2307 80.2089 61.4245 83.4377 61.7655 86.8364C62.2771 90.9148 62.2771 95.1632 62.2771 99.2416C62.4477 103.32 61.7655 107.229 60.2307 110.967C58.0138 116.405 53.7505 118.954 47.9523 119.634C45.0533 119.974 42.1542 119.804 39.2551 119.124C34.3097 117.934 31.0695 114.706 29.5347 109.778C28.5115 106.719 28.1705 103.49 27.6589 100.261C27.4884 98.222 27.3178 96.1828 27.4884 94.3135C27.6589 89.7253 28.1705 85.137 30.0464 80.8887C31.7517 76.9802 34.8213 74.2612 39.0846 73.0717C43.1774 73.0717 47.2702 73.0717 51.363 73.0717ZM54.4326 96.1828C54.0915 93.2939 54.0915 90.405 53.5799 87.6861C52.8978 83.6076 51.5335 79.8691 46.588 79.3592C43.3479 78.8494 39.9373 79.6991 38.0614 83.0978C36.3561 86.4965 36.015 90.2351 35.8445 93.8037C35.8445 97.3723 36.015 100.941 36.5266 104.51C36.8677 106.549 37.5498 108.588 38.7436 110.287C40.4489 112.497 42.8363 113.516 45.7354 113.006C47.4407 112.666 48.9755 112.497 50.3398 111.307C52.3862 109.608 53.2388 107.229 53.5799 104.849C54.0915 101.961 54.0915 99.0717 54.4326 96.1828Z" fill="#FEFEFE"/>
<path d="M168.178 73.0718C166.472 72.5619 164.597 72.0521 162.891 71.3724C159.481 70.0129 157.264 67.294 155.899 64.0652C154.535 60.4966 154.024 56.928 153.853 53.3593C153.853 48.7711 153.853 44.0129 155.047 39.5946C156.582 33.6469 159.822 29.5685 165.961 28.209C170.565 27.3593 175.17 27.3593 179.604 29.0587C184.378 30.9279 186.766 34.8364 187.448 39.7645C187.789 43.843 187.96 47.7515 188.13 51.9999C179.433 51.9999 170.906 51.9999 162.209 51.9999C162.209 56.0783 161.868 59.9868 164.256 63.3855C165.961 66.1044 168.86 66.9541 171.93 66.6142C175.34 66.4443 177.898 64.575 179.262 61.3463C179.604 60.3267 179.774 59.477 180.115 58.4574C182.616 58.4574 185.174 58.4574 187.789 58.4574C187.96 63.7253 184.72 69.1633 179.604 71.2025C177.898 72.0521 175.852 72.392 173.976 73.0718C172.043 73.0718 170.111 73.0718 168.178 73.0718ZM162.38 46.392C168.178 46.392 174.146 46.392 180.286 46.392C180.115 44.0129 180.115 41.8038 179.774 39.7645C179.262 36.5358 177.728 33.9868 174.317 33.1371C173.294 32.9672 172.1 33.1371 171.077 32.9672C167.496 32.7972 165.108 34.6665 163.744 37.7253C162.55 40.4443 162.209 43.1632 162.039 46.0521C162.152 46.1654 162.266 46.2787 162.38 46.392Z" fill="#7AB855"/>
<path d="M280.559 61.6858C284.084 50.3568 287.665 38.9712 291.303 27.5289C294.202 27.5289 296.931 27.5289 300 27.5289C298.977 30.3612 298.011 33.0801 297.101 35.6858C293.349 46.2217 289.654 56.7577 286.016 67.2937C283.629 73.8645 281.298 80.4353 279.025 87.0061C278.854 88.0257 278.342 88.3656 277.319 88.1956C275.273 88.1956 273.056 88.1956 270.839 88.1956C271.692 85.4767 272.374 82.7577 273.226 80.0388C273.738 78.1695 274.25 76.3002 274.932 74.4309C275.784 72.3917 275.443 70.6923 274.761 68.6531C270.668 57.2675 266.576 45.8819 262.483 34.4963C261.63 32.2871 260.777 29.908 259.925 27.5289C262.994 27.5289 266.064 27.5289 269.304 27.5289C272.885 38.9146 276.467 50.3002 280.218 61.6858C280.332 61.6858 280.446 61.6858 280.559 61.6858Z" fill="#7AB855"/>
<path d="M145.668 74.6011C145.668 86.7231 145.668 98.9017 145.668 111.137C145.668 113.516 145.668 115.895 145.668 118.274C143.28 118.274 140.722 118.274 137.994 118.274C137.823 116.745 137.653 115.215 137.482 114.026C135.606 115.385 133.73 117.255 131.513 118.274C127.08 120.483 120.599 120.144 116.848 116.575C114.29 114.196 113.266 111.307 113.266 107.908C113.266 96.466 113.266 85.0237 113.266 73.5815C113.266 73.3549 113.323 73.1849 113.437 73.0717C116.052 73.0717 118.61 73.0717 121.111 73.0717C121.225 73.978 121.281 74.8843 121.281 75.7906C121.281 84.6272 121.281 93.4638 121.281 102.3C121.281 103.886 121.395 105.473 121.622 107.059C121.964 110.287 123.328 112.666 127.25 113.346C131.002 114.026 135.265 112.497 136.288 108.078C137.141 105.189 137.482 102.3 137.653 99.4115C137.823 91.0847 137.653 82.9279 137.653 74.6011C137.766 74.1479 137.88 73.6381 137.994 73.0717C137.994 73.0717 138.051 73.0717 138.164 73.0717C140.552 73.0717 142.996 73.0717 145.497 73.0717C145.497 73.5248 145.554 74.0346 145.668 74.6011Z" fill="#FEFEFE"/>
<path d="M168.178 73.0717C170.111 73.0717 172.043 73.0717 173.976 73.0717C178.58 73.5815 182.503 74.9409 185.061 79.1893C186.084 81.2285 186.425 83.2677 186.254 85.4769C183.412 85.4769 180.627 85.4769 177.898 85.4769C177.728 84.6272 177.557 83.6076 177.216 82.588C175.852 78.6795 169.883 77.8298 166.984 79.1893C165.62 79.8691 164.597 80.7187 163.915 82.0782C162.721 84.2874 163.403 86.8364 165.62 88.0259C169.713 90.2351 173.805 92.2743 177.898 94.3135C180.968 95.8429 183.867 97.7122 185.743 100.601C186.936 102.81 187.448 105.189 186.936 107.738C186.595 109.098 186.425 110.627 185.913 111.817C183.696 116.405 179.774 118.614 175.17 119.464C171.588 120.144 168.007 120.144 164.426 119.294C158.628 117.595 155.217 113.856 154.535 107.738C154.421 106.945 154.308 106.152 154.194 105.359C154.308 105.246 154.421 105.133 154.535 105.019C157.264 105.019 160.163 105.019 162.721 105.019C163.232 106.719 163.573 108.248 164.256 109.778C165.108 111.987 167.155 113.006 169.372 113.346C171.418 113.686 173.464 113.346 175.17 112.497C177.216 111.477 178.239 109.947 178.41 107.908C178.58 105.699 177.387 103.83 175.681 102.81C171.759 100.601 167.837 98.7318 163.915 96.5227C162.209 95.673 160.504 94.6534 158.799 93.4638C156.241 91.5945 154.876 89.0455 154.876 85.9867C154.876 82.0782 156.411 78.5096 159.651 76.1305C162.209 74.2612 165.108 73.0717 168.178 73.0717Z" fill="#FEFEFE"/>
<path d="M138.165 73.0717C138.051 73.0717 137.994 73.0717 137.994 73.0717C137.88 73.0717 137.767 73.0717 137.653 73.0717C137.653 64.0085 137.653 54.9453 137.653 45.8821C137.653 43.7296 137.539 41.6338 137.312 39.5945C136.971 37.7253 136.289 36.0259 134.754 34.8364C133.219 33.8168 131.684 33.8168 129.979 33.8168C125.886 33.9867 123.669 35.3462 122.305 39.2547C121.452 41.9736 121.282 44.6926 121.282 47.4115C121.282 55.795 121.225 64.1784 121.111 72.5619C121.111 72.6752 121.054 72.7318 120.941 72.7318C118.44 72.7318 115.938 72.7318 113.437 72.7318C113.437 65.4813 113.38 58.2307 113.267 50.9802C113.267 46.5619 113.437 41.9736 113.267 37.3854C113.267 34.8364 112.926 32.4573 112.755 29.9083C112.755 29.5684 112.926 29.2285 112.926 28.7187C115.484 28.7187 118.212 28.7187 120.77 28.7187C120.941 30.4181 121.111 31.9475 121.282 33.307C123.158 31.7775 125.034 30.0782 127.25 28.8886C131.343 26.6795 139.529 27.3592 142.769 31.2677C144.815 33.6468 145.668 36.5357 145.668 39.5945C145.668 50.6403 145.668 61.856 145.668 73.0717C145.554 73.0717 145.497 73.0717 145.497 73.0717C142.996 73.0717 140.552 73.0717 138.165 73.0717Z" fill="#7AB754"/>
<path d="M80.1834 73.0717C83.9351 73.0717 87.63 73.0717 91.268 73.0717C91.9502 73.0717 92.4618 73.2416 93.1439 73.2416C95.8725 74.0913 98.2599 75.4507 100.136 77.8298C102.353 80.5488 103.205 83.7775 102.864 87.3462C100.363 87.3462 97.8052 87.3462 95.1903 87.3462C95.0198 86.3266 94.6787 85.307 94.5082 84.1174C93.826 81.0586 91.0975 79.5292 88.5395 79.1893C86.6636 79.0194 84.7878 79.1893 82.9119 79.6991C79.8423 80.7187 78.8191 83.6076 78.137 86.3266C77.1138 90.7449 76.9432 95.3331 77.2843 99.7514C77.4548 103.15 77.7959 106.549 79.6718 109.438C81.0361 112.157 84.6172 113.686 87.5163 113.006C92.6323 112.157 94.3376 108.928 95.0198 104.51C95.0198 104.17 95.1903 103.83 95.1903 103.32C97.8052 103.32 100.363 103.32 102.864 103.32C102.978 103.433 103.092 103.547 103.205 103.66C103.205 111.477 99.2831 117.934 90.927 119.464C86.6636 120.314 82.2298 120.314 77.9665 118.274C74.5558 116.575 72.5094 113.856 71.1451 110.287C69.6104 106.379 69.0987 102.131 69.0987 97.8821C68.9282 93.2939 69.0988 88.7057 70.2925 84.2874C71.6567 79.0194 74.3853 74.771 80.1834 73.0717Z" fill="#FEFEFE"/>
<path d="M6.68346 119.294C6.68346 106.492 6.68346 93.7467 6.68346 81.0582C6.68346 80.5484 6.68346 79.8687 6.68346 79.1889C4.80759 79.1889 3.10225 79.1889 1.39692 79.1889C0.373719 79.1889 -0.13786 78.8491 0.0326735 77.8295C0.0326735 76.6966 0.0326735 75.507 0.0326735 74.2608C-0.13786 73.4112 0.373761 73.0713 1.22643 73.0713C2.93176 73.0713 4.80759 73.0713 6.68346 73.0713C6.68346 71.4852 6.68346 69.9558 6.68346 68.483C6.85399 65.4242 6.68348 62.1955 7.02455 59.1366C7.19508 56.2477 9.24146 54.5484 11.7995 53.3588C15.5512 51.6595 19.3029 52.3392 23.2252 52.1693C23.2252 54.2085 23.2252 56.1911 23.2252 58.117C21.3493 58.4569 19.4734 58.6268 17.7681 59.1366C15.7217 59.8164 14.8691 61.5157 14.8691 63.5549C14.8691 66.6138 14.8691 69.8425 14.8691 73.0713C17.4839 73.0713 20.2124 73.0713 23.0547 73.0713C23.0547 73.1846 23.1115 73.2979 23.2252 73.4112C23.2252 75.1105 23.2252 76.9798 23.2252 78.8491C20.4967 78.8491 17.7681 78.8491 14.6985 78.8491C14.6985 92.4438 14.6985 106.039 14.6985 119.463C12.1405 119.463 9.58254 119.463 7.02455 119.463C6.91086 119.463 6.79715 119.407 6.68346 119.294Z" fill="#FEFEFE"/>
<path d="M216.61 35.3462C214.222 35.5161 212.005 35.5161 209.788 36.0259C205.696 36.8756 203.82 40.2743 203.82 43.8429C203.649 53.0194 203.82 62.0259 203.82 71.2024C203.82 71.6555 203.82 72.1654 203.82 72.7318C201.091 72.7318 198.533 72.7318 195.975 72.7318C195.464 58.1174 196.487 43.3331 195.123 28.5488C197.51 28.5488 199.898 28.5488 202.285 28.7187C202.626 28.7187 202.967 29.2285 203.138 29.5684C203.308 30.9278 203.479 32.1174 203.649 33.9867C206.548 28.7187 211.153 27.1893 216.78 27.5292C216.78 30.0782 216.78 32.6272 216.78 35.0063C216.667 35.1196 216.61 35.2329 216.61 35.3462Z" fill="#7AB754"/>
<path d="M53.5801 0.509803C47.4409 2.54902 42.1544 5.60784 37.7205 10.366C34.4804 13.9346 32.0929 18.0131 30.2171 22.6013C30.1034 22.6013 29.9897 22.6013 29.876 22.6013C29.876 15.1242 29.876 7.64706 29.876 0C37.891 0 45.7356 0 53.5801 0C53.5801 0.11329 53.5801 0.283223 53.5801 0.509803Z" fill="#7AB855"/>
<path d="M51.3632 73.0716C47.2704 73.0716 43.1776 73.0716 39.0848 73.0716C36.0152 73.0716 32.9456 73.0716 29.876 73.0716C29.876 65.5945 29.876 58.1174 29.876 50.8102C29.876 50.8102 29.9328 50.7535 30.0465 50.6403C31.7519 53.869 33.1161 57.0978 35.1625 59.9867C39.0848 65.7645 44.5418 69.8429 51.0221 72.7318C51.1358 72.7318 51.2495 72.7884 51.3632 72.9017V73.0716Z" fill="#7AB855"/>
<path d="M194.611 114.366C194.611 116.235 194.611 117.764 194.611 119.294C194.497 119.294 194.383 119.294 194.27 119.294C194.27 118.274 194.099 117.425 194.099 116.065C193.587 117.425 193.076 118.274 192.564 119.804C191.882 118.444 191.371 117.594 191.029 116.575C190.916 116.575 190.802 116.575 190.688 116.575C190.688 117.481 190.632 118.388 190.518 119.294C190.404 119.294 190.29 119.294 190.177 119.294C190.177 118.048 190.177 116.688 190.177 115.215C189.665 115.215 189.324 115.215 188.813 115.215C188.813 116.575 188.813 117.934 188.813 119.634C188.471 119.124 188.13 118.954 187.96 118.784C187.96 117.934 188.13 117.255 187.96 116.405C187.96 115.895 187.619 115.385 187.448 114.706C188.471 114.706 189.836 114.706 191.2 114.706C191.541 115.612 191.939 116.632 192.394 117.764C193.246 116.745 192.905 115.045 194.611 114.366Z" fill="#FEFEFE"/>
<path d="M113.437 72.7318C115.938 72.7318 118.44 72.7318 120.941 72.7318C121.054 72.7318 121.111 72.7318 121.111 72.7318C121.225 72.8451 121.225 72.9584 121.111 73.0717C118.61 73.0717 116.052 73.0717 113.437 73.0717C113.437 72.9584 113.437 72.8451 113.437 72.7318Z" fill="#74965B"/>
<path d="M29.8754 22.601C29.9891 22.601 30.1028 22.601 30.2165 22.601C30.1028 22.9408 29.9891 23.224 29.8754 23.4506C29.8754 23.4506 29.8185 23.4506 29.7048 23.4506C29.7048 23.1108 29.7617 22.8275 29.8754 22.601Z" fill="#98C579"/>
<path d="M145.497 73.0717C145.497 73.0717 145.554 73.0717 145.667 73.0717C145.667 73.5248 145.667 74.0346 145.667 74.6011C145.554 74.0346 145.497 73.5248 145.497 73.0717Z" fill="#3A3734"/>
<path d="M30.0459 50.6408C29.9322 50.7541 29.8754 50.8107 29.8754 50.8107C29.7617 50.5841 29.7048 50.3576 29.7048 50.131C29.8185 50.131 29.8754 50.131 29.8754 50.131C29.9891 50.3576 30.0459 50.5275 30.0459 50.6408Z" fill="#98C579"/>
<path d="M137.653 74.6011C137.653 74.0346 137.653 73.5248 137.653 73.0717C137.766 73.0717 137.88 73.0717 137.994 73.0717C137.88 73.6381 137.766 74.1479 137.653 74.6011Z" fill="#78726F"/>
<path d="M121.111 72.5619C121.111 72.6756 121.111 72.7324 121.111 72.7324C121.111 72.7324 121.054 72.7324 120.94 72.7324C121.054 72.7324 121.111 72.6756 121.111 72.5619Z" fill="#8CBD6B"/>
</svg>
