<svg width="428" height="66" viewBox="0 0 428 66" fill="none" xmlns="http://www.w3.org/2000/svg">
<g clip-path="url(#clip0_4595_2979)">
<path d="M17.2422 19.2109H25.0035V30.0714H35.221V19.2109H42.98V49.0384H35.221V36.7567H25.0035V49.0384H17.2422V19.2109Z" fill="#FF6100"/>
<path d="M17.2422 19.2109H25.0035V30.0714H35.221V19.2109H42.98V49.0384H35.221V36.7567H25.0035V49.0384H17.2422V19.2109Z" stroke="#FF6100" stroke-width="1.33333" stroke-miterlimit="10"/>
<path d="M56.1252 42.3534H59.7962C65.6782 42.2281 68.0112 39.9325 68.0112 33.956C68.0112 28.4842 65.1362 25.8945 59.7962 25.8945H56.1252V42.3534ZM48.3672 19.2109H61.1732C70.3062 19.2109 75.7712 24.764 75.7712 33.9966C75.7712 43.7757 70.2262 49.0371 61.1732 49.0371H48.3672V19.2109Z" fill="#FF6100"/>
<path d="M56.1252 42.3534H59.7962C65.6782 42.2281 68.0112 39.9325 68.0112 33.956C68.0112 28.4842 65.1362 25.8945 59.7962 25.8945H56.1252V42.3534ZM48.3672 19.2109H61.1732C70.3062 19.2109 75.7712 24.764 75.7712 33.9966C75.7712 43.7757 70.2262 49.0371 61.1732 49.0371H48.3672V19.2109Z" stroke="#FF6100" stroke-width="1.33333" stroke-miterlimit="10"/>
<path d="M95.253 19.2109H103.149V25.4324H95.253V19.2109ZM95.25 27.8198H103.149V49.0371H95.25V27.8198Z" fill="#FF6100" stroke="#FF6100" stroke-width="1.33333" stroke-miterlimit="10"/>
<path d="M113.626 39.0137C113.794 42.5212 115.919 43.6517 119.259 43.6517C121.595 43.6517 124.016 42.8152 124.016 40.6023C124.016 37.9282 119.758 37.4672 115.463 36.256C111.251 35.0431 106.746 33.1649 106.746 27.6512C106.746 21.1333 113.296 18.5859 118.884 18.5859C124.766 18.5859 130.816 21.5103 130.816 28.1945H123.055C123.182 25.5198 120.597 24.5986 118.259 24.5986C116.592 24.5986 114.503 25.1895 114.503 27.1491C114.503 29.4901 118.802 29.8661 123.141 31.079C127.439 32.2908 131.775 34.294 131.775 39.6828C131.775 47.2452 125.349 49.6676 118.802 49.6676C112 49.6676 105.867 46.6574 105.867 39.0137H113.626Z" fill="#FF6100"/>
<path d="M113.626 39.0137C113.794 42.5212 115.919 43.6517 119.259 43.6517C121.595 43.6517 124.016 42.8152 124.016 40.6023C124.016 37.9282 119.758 37.4672 115.463 36.256C111.251 35.0431 106.746 33.1649 106.746 27.6512C106.746 21.1333 113.296 18.5859 118.884 18.5859C124.766 18.5859 130.816 21.5103 130.816 28.1945H123.055C123.182 25.5198 120.597 24.5986 118.259 24.5986C116.592 24.5986 114.503 25.1895 114.503 27.1491C114.503 29.4901 118.802 29.8661 123.141 31.079C127.439 32.2908 131.775 34.294 131.775 39.6828C131.775 47.2452 125.349 49.6676 118.802 49.6676C112 49.6676 105.867 46.6574 105.867 39.0137H113.626Z" stroke="#FF6100" stroke-width="1.33333" stroke-miterlimit="10"/>
<path d="M135.406 19.2109H143.165V30.6578L152.97 19.2109H162.604L151.592 30.9502L163.98 49.0384H154.346L146.335 36.5062L143.165 39.8464V49.0384H135.406V19.2109Z" fill="#FF6100"/>
<path d="M135.406 19.2109H143.165V30.6578L152.97 19.2109H162.604L151.592 30.9502L163.98 49.0384H154.346L146.335 36.5062L143.165 39.8464V49.0384H135.406V19.2109Z" stroke="#FF6100" stroke-width="1.33333" stroke-miterlimit="10"/>
<path d="M166.312 19.2109H190.049V25.4331H174.071V30.6578H188.67V36.6706H174.071V42.3534H190.466V49.0384H166.312V19.2109Z" fill="#FF6100"/>
<path d="M166.312 19.2109H190.049V25.4331H174.071V30.6578H188.67V36.6706H174.071V42.3534H190.466V49.0384H166.312V19.2109Z" stroke="#FF6100" stroke-width="1.33333" stroke-miterlimit="10"/>
<path d="M194.805 19.2109H202.774L213.121 37.5894H213.201V19.2109H220.505V49.0384H212.535L202.19 30.4481H202.106V49.0384H194.805V19.2109Z" fill="#FF6100"/>
<path d="M194.805 19.2109H202.774L213.121 37.5894H213.201V19.2109H220.505V49.0384H212.535L202.19 30.4481H202.106V49.0384H194.805V19.2109Z" stroke="#FF6100" stroke-width="1.33333" stroke-miterlimit="10"/>
<path d="M233.562 42.3534H237.235C243.117 42.2281 245.451 39.9325 245.451 33.956C245.451 28.4842 242.577 25.8945 237.235 25.8945H233.562V42.3534ZM225.805 19.2109H238.61C247.745 19.2109 253.211 24.764 253.211 33.9966C253.211 43.7757 247.663 49.0371 238.61 49.0371H225.805V19.2109Z" fill="#FF6100"/>
<path d="M233.562 42.3534H237.235C243.117 42.2281 245.451 39.9325 245.451 33.956C245.451 28.4842 242.577 25.8945 237.235 25.8945H233.562V42.3534ZM225.805 19.2109H238.61C247.745 19.2109 253.211 24.764 253.211 33.9966C253.211 43.7757 247.663 49.0371 238.61 49.0371H225.805V19.2109Z" stroke="#FF6100" stroke-width="1.33333" stroke-miterlimit="10"/>
<path d="M257.672 19.2109H281.407V25.4331H265.429V30.6578H280.032V36.6706H265.429V42.3534H281.824V49.0384H257.672V19.2109Z" fill="#FF6100"/>
<path d="M257.672 19.2109H281.407V25.4331H265.429V30.6578H280.032V36.6706H265.429V42.3534H281.824V49.0384H257.672V19.2109Z" stroke="#FF6100" stroke-width="1.33333" stroke-miterlimit="10"/>
<path d="M294.249 32.1621H300.758C303.093 32.1621 304.346 30.9502 304.346 28.6515C304.346 26.4386 302.596 25.4331 300.423 25.4331H294.249V32.1621ZM286.492 19.2109H301.675C306.889 19.2109 312.106 21.5926 312.106 27.6084C312.106 30.8242 310.604 33.876 307.432 35.0848V35.1678C310.56 35.9629 311.563 39.4704 311.769 42.3141C311.896 43.6076 311.979 47.8666 313.023 49.0384H305.345C304.678 47.9933 304.597 45.1542 304.471 44.275C304.262 41.2696 303.804 38.1779 300.133 38.1779H294.249V49.0384H286.492V19.2109Z" fill="#FF6100"/>
<path d="M294.249 32.1621H300.758C303.093 32.1621 304.346 30.9502 304.346 28.6515C304.346 26.4386 302.596 25.4331 300.423 25.4331H294.249V32.1621ZM286.492 19.2109H301.675C306.889 19.2109 312.106 21.5926 312.106 27.6084C312.106 30.8242 310.604 33.876 307.432 35.0848V35.1678C310.56 35.9629 311.563 39.4704 311.769 42.3141C311.896 43.6076 311.979 47.8666 313.023 49.0384H305.345C304.678 47.9933 304.597 45.1542 304.471 44.275C304.262 41.2696 303.804 38.1779 300.133 38.1779H294.249V49.0384H286.492V19.2109Z" stroke="#FF6100" stroke-width="1.33333" stroke-miterlimit="10"/>
</g>
<defs>
<clipPath id="clip0_4595_2979">
<rect width="307" height="66" fill="white" transform="translate(12)"/>
</clipPath>
</defs>
</svg>
