<?xml version="1.0" encoding="UTF-8" standalone="no"?>
<!-- Created with Inkscape (http://www.inkscape.org/) -->

<svg
   xmlns:dc="http://purl.org/dc/elements/1.1/"
   xmlns:cc="http://creativecommons.org/ns#"
   xmlns:rdf="http://www.w3.org/1999/02/22-rdf-syntax-ns#"
   xmlns:svg="http://www.w3.org/2000/svg"
   xmlns="http://www.w3.org/2000/svg"
   xmlns:sodipodi="http://sodipodi.sourceforge.net/DTD/sodipodi-0.dtd"
   xmlns:inkscape="http://www.inkscape.org/namespaces/inkscape"
   width="201.00002"
   height="61.711971"
   viewBox="0 0 53.181254 16.327958"
   version="1.1"
   id="svg34724"
   inkscape:version="0.92.4 (5da689c313, 2019-01-14)"
   sodipodi:docname="reg.svg">
  <defs
     id="defs34718" />
  <sodipodi:namedview
     id="base"
     pagecolor="#ffffff"
     bordercolor="#666666"
     borderopacity="1.0"
     inkscape:pageopacity="0.0"
     inkscape:pageshadow="2"
     inkscape:zoom="7.0400002"
     inkscape:cx="99.999998"
     inkscape:cy="30.355972"
     inkscape:document-units="mm"
     inkscape:current-layer="layer1"
     showgrid="false"
     fit-margin-top="0"
     fit-margin-left="0"
     fit-margin-right="0"
     fit-margin-bottom="0"
     units="px"
     inkscape:window-width="1920"
     inkscape:window-height="1001"
     inkscape:window-x="-9"
     inkscape:window-y="-9"
     inkscape:window-maximized="1" />
  <metadata
     id="metadata34721">
    <rdf:RDF>
      <cc:Work
         rdf:about="">
        <dc:format>image/svg+xml</dc:format>
        <dc:type
           rdf:resource="http://purl.org/dc/dcmitype/StillImage" />
        <dc:title></dc:title>
      </cc:Work>
    </rdf:RDF>
  </metadata>
  <g
     inkscape:label="Layer 1"
     inkscape:groupmode="layer"
     id="layer1"
     transform="translate(33.261899,-140.53706)">
    <g
       id="g34884"
       transform="translate(0.13229252,-0.13228708)">
      <path
         inkscape:connector-curvature="0"
         d="m -31.183869,143.54112 c -0.108318,0.0543 -0.3288,0.1195 -0.654905,0.1195 -0.903912,0 -1.423125,-0.62175 -1.423125,-1.41542 0,-0.944 0.66184,-1.44356 1.482871,-1.44356 0.318777,0 0.487235,0.0609 0.595159,0.11834 l -0.100218,0.5647 c -0.121429,-0.0536 -0.248628,-0.10253 -0.469504,-0.10253 -0.39162,0 -0.807147,0.23243 -0.807147,0.85187 0,0.55468 0.331495,0.84725 0.810236,0.84725 0.188882,0 0.318004,-0.0362 0.466415,-0.10446 z"
         style="fill:#0573bb;stroke-width:0.03854624"
         id="path34364" />
      <path
         inkscape:connector-curvature="0"
         d="m -28.108265,142.76981 c 0.02274,0.25903 0.237062,0.39587 0.568163,0.39896 0.199285,0.002 0.431728,-0.0559 0.586302,-0.14725 l 0.09251,0.47682 c -0.232443,0.11602 -0.498409,0.16228 -0.769007,0.16228 -0.729293,0 -1.119762,-0.43943 -1.119762,-1.11091 0,-0.67147 0.420146,-1.06888 1.049993,-1.06888 0.629846,0 0.939766,0.47797 0.939766,1.07621 0,0.0628 -0.0077,0.16613 -0.01504,0.21239 h -1.332931 m 0.736228,-0.4348 c 0,-0.14995 -0.07324,-0.41283 -0.356933,-0.41283 -0.248628,0 -0.365425,0.21431 -0.383155,0.41283 z"
         style="fill:#0573bb;stroke-width:0.03854624"
         id="path34366" />
      <polygon
         transform="matrix(0.03854624,0,0,0.03854624,-33.261899,140.80164)"
         points="187.34,71.96 169.78,19.84 187.31,19.84 196.85,56.7 197.18,56.7 206.71,19.84 224.24,19.84 206.69,71.96 "
         style="fill:#0573bb"
         id="polygon34368" />
      <path
         inkscape:connector-curvature="0"
         d="m -24.444451,142.2267 c 0,-0.29565 -0.0096,-0.488 -0.02197,-0.6603 h 0.577035 l 0.01773,0.37313 h 0.01504 c 0.10099,-0.29527 0.294884,-0.40782 0.494169,-0.419 0.09483,-0.006 0.145701,0.001 0.204675,0.0123 v 0.58783 c -0.05628,-0.0108 -0.167671,-0.0243 -0.245919,-0.017 -0.23591,0.0216 -0.378523,0.19273 -0.418222,0.39047 -0.0082,0.0405 -0.01238,0.0867 -0.01238,0.13915 v 0.94169 h -0.610194 z"
         style="fill:#0573bb;stroke-width:0.03854624"
         id="path34370" />
      <path
         inkscape:connector-curvature="0"
         d="m -21.005344,142.57091 c 0,0.6576 -0.396646,1.08971 -1.039605,1.08971 -0.642944,0 -1.039969,-0.43211 -1.039969,-1.08971 0,-0.65759 0.397025,-1.0897 1.039969,-1.0897 0.642959,0 1.039605,0.43056 1.039605,1.0897 m -0.634859,0 c 0,-0.32725 -0.112557,-0.61134 -0.404746,-0.61134 -0.292174,0 -0.404732,0.28409 -0.404732,0.61134 0,0.32726 0.112179,0.61135 0.404732,0.61135 0.292189,0 0.404746,-0.28409 0.404746,-0.61135 z"
         style="fill:#0573bb;stroke-width:0.03854624"
         id="path34372" />
      <path
         inkscape:connector-curvature="0"
         d="m -20.732823,142.20704 c 0,-0.25055 -0.0092,-0.46487 -0.02197,-0.64025 h 0.577035 l 0.01267,0.28061 h 0.01268 c 0.07979,-0.13028 0.291402,-0.34499 0.621368,-0.34499 0.403959,0 0.667623,0.27522 0.667623,0.86691 v 1.2065 h -0.612117 v -1.11438 c 0,-0.25787 -0.08867,-0.4348 -0.309919,-0.4348 -0.169987,0 -0.275217,0.11911 -0.314537,0.23398 -0.01464,0.0416 -0.02043,0.0991 -0.02043,0.1565 v 1.1587 h -0.612116 v -1.36878 0 z"
         style="fill:#0573bb;stroke-width:0.03854624"
         id="path34374" />
      <path
         inkscape:connector-curvature="0"
         d="m -29.682874,141.50203 c -0.243618,0 -0.479134,0.11024 -0.59902,0.28755 h -0.0073 v -0.97792 l -0.612117,0.21201 v 2.55176 h 0.612117 v -1.19224 c 0,-0.17191 0.111785,-0.35693 0.326483,-0.35693 0.229734,0 0.318005,0.18078 0.318005,0.44289 v 1.10628 h 0.612889 v -1.19069 c 0,-0.60749 -0.260575,-0.88271 -0.651044,-0.88271 z"
         style="fill:#0573bb;stroke-width:0.03854624"
         id="path34376" />
      <polygon
         transform="matrix(0.03854624,0,0,0.03854624,-33.261899,140.80164)"
         id="polygon34380"
         style="fill:#019dd9"
         points="187.07,147.97 0.63,210.12 187.07,272.27 373.51,210.12 373.51,85.83 " />
      <polygon
         transform="matrix(0.03854624,0,0,0.03854624,-33.261899,140.80164)"
         id="polygon34382"
         style="fill:#0573bb"
         points="0.63,210.12 187.07,147.97 0.63,85.83 " />
      <polygon
         transform="matrix(0.03854624,0,0,0.03854624,-33.261899,140.80164)"
         id="polygon34386"
         style="fill:#971a31"
         points="0.63,354.58 187.07,292.43 0.63,230.3 " />
      <polygon
         transform="matrix(0.03854624,0,0,0.03854624,-33.261899,140.80164)"
         id="polygon34388"
         style="fill:#e11d37"
         points="187.07,292.43 0.63,354.58 187.07,416.73 373.51,354.58 373.51,230.3 " />
      <path
         inkscape:connector-curvature="0"
         d="m -4.7311263,145.85274 v 0 c -0.1214196,-0.13337 -0.3033589,-0.20622 -0.4852966,-0.20622 h -3.4579834 c -0.1819378,0 -0.3638771,0.0728 -0.4976319,0.20622 l -2.9484028,2.96035 h 3.4579839 l 1.7230163,-1.72301 1.7230179,1.72301 h 3.4456481 z"
         style="fill:#1a3341;stroke-width:0.03854624"
         id="path34397" />
      <path
         inkscape:connector-curvature="0"
         d="m -4.7311263,145.85274 v 0 c -0.2667391,-0.26674 -0.7038542,-0.27907 -0.9705932,-0.0119 l -0.011946,0.0119 -1.2253845,1.23772 1.7230178,1.72302 h 3.4456481 l -2.9603515,-2.96035 z"
         style="fill:#55b948;stroke-width:0.03854624"
         id="path34399" />
      <path
         inkscape:connector-curvature="0"
         d="m -9.1597044,145.85274 v 0 c 0.2667405,-0.26674 0.7038556,-0.27907 0.9705947,-0.0119 l 0.011946,0.0119 1.2377197,1.23772 -1.7349655,1.72302 h -3.4456495 l 2.9603514,-2.96035 z"
         style="fill:#0064a6;stroke-width:0.03854624"
         id="path34401" />
      <path
         inkscape:connector-curvature="0"
         d="m -9.1597044,152.17394 v 0 c 0.1333703,0.13337 0.3033603,0.20622 0.4976334,0.20622 h 3.4456481 c 0.1819377,0 0.363877,-0.0728 0.4976318,-0.20622 l 2.9603516,-2.96035 h -3.4579834 l -1.7230179,1.73497 -1.7349655,-1.73497 h -3.4456497 z"
         style="fill:#1a3341;stroke-width:0.03854624"
         id="path34403" />
      <path
         inkscape:connector-curvature="0"
         d="m -9.1597044,152.17394 v 0 c 0.2667405,0.26674 0.7038556,0.27907 0.9705947,0.012 l 0.011946,-0.012 1.2377197,-1.23772 -1.7349655,-1.72302 h -3.4456495 l 2.9603514,2.96035 z"
         style="fill:#55b948;stroke-width:0.03854624"
         id="path34405" />
      <path
         inkscape:connector-curvature="0"
         d="m -4.7311263,152.17394 v 0 c -0.2667391,0.26674 -0.7038542,0.27907 -0.9705932,0.012 l -0.011946,-0.012 -1.2253845,-1.23772 1.7230178,-1.72302 h 3.4456481 l -2.9603515,2.96035 z"
         style="fill:#0064a6;stroke-width:0.03854624"
         id="path34407" />
      <path
         inkscape:connector-curvature="0"
         d="m -6.1507839,149.01932 c 0,0.40049 -0.3276433,0.72813 -0.7281386,0.72813 -0.4004954,0 -0.7281387,-0.32764 -0.7281387,-0.72813 0,-0.4005 0.3276433,-0.72814 0.7281387,-0.72814 0.4004953,0 0.7281386,0.32764 0.7281386,0.72814"
         style="fill:#f6d709;stroke-width:0.03854624"
         id="path34409" />
      <path
         inkscape:connector-curvature="0"
         d="m 12.424651,150.41469 c -0.07285,0.37621 -0.157655,0.69152 -0.449064,1.00721 -0.291024,0.32765 -0.715804,0.50958 -1.152533,0.49764 -0.800606,0 -1.2616178,-0.54582 -1.1162984,-1.34681 0.1333688,-0.80061 0.8248894,-1.39537 1.6378294,-1.37109 0.52153,0 0.885793,0.24284 1.019162,0.7158 l -0.67957,0.26674 c -0.02428,-0.24284 -0.230507,-0.42478 -0.473347,-0.41244 -0.436729,0 -0.740088,0.41244 -0.812942,0.81294 -0.07285,0.40049 0.0848,0.8006 0.521532,0.8006 0.279075,0.012 0.545815,-0.16998 0.618667,-0.44906 h -0.545815 l 0.09714,-0.52153 h 1.33447 z"
         style="fill:#0064a6;stroke-width:0.03854624"
         id="path34413" />
      <path
         inkscape:connector-curvature="0"
         d="m 1.5777382,148.07301 v 0.0728 c 0,0.20622 0.1333702,0.32764 0.3881601,0.32764 0.194273,-0.0243 0.3881615,-0.0728 0.5700993,-0.15765 l -0.060518,0.46101 c -0.2062223,0.0728 -0.4124446,0.10909 -0.6310022,0.10909 -0.5943823,0 -0.87345663,-0.32765 -0.86150741,-0.77633 0.0119463,-0.631 0.44906291,-1.22538 1.09201421,-1.22538 0.4610136,0 0.7281387,0.29102 0.7281387,0.69152 -0.011946,0.16999 -0.036234,0.33959 -0.072852,0.50958 H 1.5777382 v -0.012 z m 0.4610121,-0.77633 c -0.1942731,0 -0.3395925,0.16999 -0.4004953,0.43673 h 0.5700993 c 0.024285,-0.0728 0.036234,-0.1457 0.036234,-0.21855 0.011946,-0.10909 -0.084801,-0.21856 -0.1942731,-0.21856 h -0.011946"
         style="fill:#0064a6;stroke-width:0.03854624"
         id="path34415" />
      <path
         inkscape:connector-curvature="0"
         d="m 3.6889161,146.93242 c 0,0.0728 -0.036234,0.21856 -0.060518,0.31531 h 0.011946 c 0.1819378,-0.26674 0.3881615,-0.36388 0.5943838,-0.36388 0.2547898,-0.0119 0.4610121,0.18194 0.4733474,0.42478 v 0.0362 c 0,0.0729 -0.011946,0.13337 -0.024285,0.20622 l -0.2910236,1.2859 H 3.7374807 L 3.992272,147.7087 c 0.011946,-0.0362 0.011946,-0.0848 0.011946,-0.12142 0,-0.10908 -0.048569,-0.16999 -0.1457055,-0.16999 -0.1699886,0 -0.2667391,0.13337 -0.3033589,0.3396 L 3.312313,148.8489 H 2.6570267 l 0.3519278,-1.52874 c 0.036232,-0.14571 0.048568,-0.30336 0.060517,-0.38816 h 0.6186668 z"
         style="fill:#0064a6;stroke-width:0.03854624"
         id="path34417" />
      <path
         inkscape:connector-curvature="0"
         d="m 5.3024606,148.07301 v 0.0728 c 0,0.20622 0.1333703,0.32764 0.3881616,0.32764 0.194273,-0.0243 0.38816,-0.0728 0.5700993,-0.15765 l -0.060518,0.46101 c -0.2062222,0.0728 -0.4124445,0.10909 -0.6310021,0.10909 -0.5943823,0 -0.8734581,-0.32765 -0.8615089,-0.77633 0.011946,-0.631 0.4490644,-1.22538 1.0920157,-1.22538 0.4610136,0 0.7281387,0.29102 0.7281387,0.69152 -0.011946,0.16999 -0.036234,0.33959 -0.084803,0.49763 H 5.3024606 Z m 0.4610136,-0.77633 c -0.1942731,0 -0.3395925,0.16999 -0.4004954,0.43673 h 0.5700993 c 0.024283,-0.0728 0.036234,-0.1457 0.036234,-0.21855 0.011946,-0.10909 -0.084803,-0.21856 -0.1942731,-0.21856 0,0 -0.011946,0 -0.011946,0"
         style="fill:#0064a6;stroke-width:0.03854624"
         id="path34419" />
      <polygon
         transform="matrix(0.03854624,0,0,0.03854624,-33.261899,140.80164)"
         points="1083.57,193.36 1097.11,159.05 1113.47,159.05 1089.55,208.47 1070.98,208.47 1071.61,173.21 1056.82,208.47 1037.93,208.47 1035.41,159.05 1052.72,159.05 1051.47,193.36 1051.78,193.36 1065.31,159.05 1084.83,159.05 1083.26,193.36 "
         style="fill:#0064a6"
         id="polygon34421" />
      <path
         inkscape:connector-curvature="0"
         d="m 11.004992,148.42493 c -0.03623,0.13337 -0.06052,0.27908 -0.07285,0.42478 h -0.582433 c 0,-0.0848 0.01195,-0.18194 0.03623,-0.26674 -0.206222,0.21856 -0.339592,0.30336 -0.5700976,0.30336 -0.2790758,0.012 -0.5215318,-0.20622 -0.5338656,-0.4853 v -0.0362 c 0.011946,-0.58243 0.4733474,-0.72814 1.0072132,-0.72814 h 0.315308 c 0.01195,-0.0362 0.01195,-0.0729 0.01195,-0.0971 0,-0.10909 -0.06052,-0.21856 -0.279074,-0.21856 -0.218558,0 -0.4247801,0.0486 -0.6186671,0.1457 l 0.048568,-0.46101 c 0.2305068,-0.0848 0.4610131,-0.12142 0.7038541,-0.10909 0.533865,0 0.740088,0.26674 0.728138,0.54582 0,0.0848 -0.01195,0.16999 -0.03623,0.25479 l -0.157654,0.72814 z m -1.1282478,-0.15765 c 0,0.10908 0.097137,0.20622 0.2185578,0.20622 v 0 c 0.230505,0 0.363875,-0.18194 0.436727,-0.54581 -0.436727,-0.012 -0.642951,0.0848 -0.6552848,0.33959"
         style="fill:#0064a6;stroke-width:0.03854624"
         id="path34423" />
      <path
         inkscape:connector-curvature="0"
         d="m 12.315179,148.87361 c -0.218557,0 -0.412444,-0.13337 -0.473347,-0.33959 h -0.01195 c -0.02429,0.0971 -0.04857,0.20622 -0.0848,0.30336 H 11.11408 c 0.03623,-0.10909 0.06052,-0.23051 0.0848,-0.33959 l 0.558148,-2.41454 h 0.655287 l -0.181938,0.77632 c -0.02428,0.12142 -0.04857,0.23051 -0.09714,0.33959 h 0.01195 c 0.109086,-0.19427 0.327643,-0.32764 0.558148,-0.32764 0.303359,0 0.533866,0.24284 0.533866,0.72814 0.01195,0.74009 -0.436729,1.27395 -0.922026,1.27395 m 0.09714,-1.52874 c -0.266741,0 -0.436729,0.50958 -0.436729,0.8006 0,0.18194 0.09714,0.27908 0.206222,0.27908 0.254791,0 0.412445,-0.46102 0.412445,-0.81294 0,-0.15766 -0.06052,-0.26674 -0.181938,-0.26674"
         style="fill:#0064a6;stroke-width:0.03854624"
         id="path34425" />
      <polygon
         transform="matrix(0.03854624,0,0,0.03854624,-33.261899,140.80164)"
         points="1220.81,208.47 1203.49,208.47 1219.86,137.33 1236.86,137.33 "
         style="fill:#0064a6"
         id="polygon34427" />
      <path
         inkscape:connector-curvature="0"
         d="m 14.729716,148.07301 v 0.0728 c 0,0.20622 0.13337,0.32764 0.38816,0.32764 0.194273,-0.0243 0.388162,-0.0728 0.570099,-0.15765 l -0.06052,0.46101 c -0.206222,0.0728 -0.412444,0.10909 -0.631,0.10909 -0.594384,0 -0.873459,-0.32765 -0.861509,-0.77633 0.01195,-0.631 0.449063,-1.22538 1.092014,-1.22538 0.461013,0 0.728139,0.29102 0.728139,0.69152 -0.01195,0.16999 -0.03623,0.32764 -0.07285,0.49763 h -1.152532 z m 0.449063,-0.78866 c -0.194273,0 -0.339591,0.16999 -0.400495,0.43673 h 0.570099 c 0.02428,-0.0728 0.03623,-0.14571 0.03623,-0.21856 0.01195,-0.10908 -0.0848,-0.21856 -0.194273,-0.21856 0,0 -0.01195,0 -0.01195,0"
         style="fill:#0064a6;stroke-width:0.03854624"
         id="path34429" />
      <polygon
         transform="matrix(0.03854624,0,0,0.03854624,-33.261899,140.80164)"
         points="862.92,259.14 840.89,259.14 837.74,273.31 861.98,273.31 859.15,286.53 816.97,286.53 832.39,220.11 873,220.11 870.16,233.33 846.87,233.33 843.72,245.92 866.07,245.92 "
         style="fill:#0064a6"
         id="polygon34431" />
      <path
         inkscape:connector-curvature="0"
         d="m 1.0562064,149.92939 c 0,0.0729 -0.036232,0.21856 -0.0605167,0.31531 H 1.007636 c 0.1819378,-0.26674 0.38816,-0.36388 0.5943823,-0.36388 0.2547913,-0.0119 0.4610136,0.18194 0.4733489,0.43673 v 0.0362 c 0,0.0728 -0.011946,0.13337 -0.024285,0.20622 l -0.2910236,1.2859 H 1.1047725 l 0.2547913,-1.12825 c 0.011946,-0.0362 0.011946,-0.0848 0.011946,-0.12142 0,-0.0971 -0.048569,-0.16999 -0.1457055,-0.16999 -0.1699886,0 -0.26674053,0.13337 -0.30335885,0.3396 l -0.24284061,1.09201 H 0.02431851 l 0.35192636,-1.51641 c 0.0362337,-0.1457 0.048569,-0.30336 0.0605182,-0.38816 l 0.61866683,-0.0243 z"
         style="fill:#0064a6;stroke-width:0.03854624"
         id="path34433" />
      <path
         inkscape:connector-curvature="0"
         d="m 2.6697524,151.06959 v 0.0728 c 0,0.20623 0.1333703,0.32765 0.3881616,0.32765 0.194273,-0.012 0.4004953,-0.0605 0.5824331,-0.14571 l -0.072852,0.46101 c -0.2062223,0.0729 -0.4124446,0.10909 -0.6310022,0.10909 -0.5943838,0 -0.8734581,-0.32764 -0.8615089,-0.77632 0.011946,-0.631 0.4490644,-1.22539 1.0920157,-1.22539 0.4610121,0 0.7281387,0.29103 0.7281387,0.69152 -0.011946,0.16999 -0.036234,0.3396 -0.072853,0.49763 l -1.1525325,-0.0119 z m 0.4490644,-0.77632 c -0.1942731,0 -0.3395925,0.16999 -0.4004954,0.43673 h 0.5700993 c 0.024283,-0.0728 0.036232,-0.14571 0.036232,-0.21856 0.011946,-0.10908 -0.072852,-0.20622 -0.1942731,-0.21856 h -0.011946"
         style="fill:#0064a6;stroke-width:0.03854624"
         id="path34435" />
      <path
         inkscape:connector-curvature="0"
         d="m 5.2781776,150.47521 c -0.072853,-0.012 -0.1333703,-0.0243 -0.2062223,-0.0243 -0.2185576,0.0243 -0.4004953,0.19428 -0.4367291,0.41245 L 4.4047195,151.8463 H 3.7494328 l 0.3033589,-1.35876 c 0.060518,-0.27907 0.097136,-0.46101 0.1090857,-0.55815 h 0.6186683 c 0,0.0729 -0.036234,0.21856 -0.060518,0.31531 h 0.011946 c 0.1333702,-0.21856 0.2667405,-0.36388 0.5095811,-0.36388 0.048569,0 0.1090857,0 0.1576547,0.012 l -0.121421,0.58243 z"
         style="fill:#0064a6;stroke-width:0.03854624"
         id="path34437" />
      <path
         inkscape:connector-curvature="0"
         d="m 7.3288373,149.92939 c -0.036234,0.10909 -0.084801,0.26674 -0.1214211,0.44907 l -0.2910235,1.29823 c -0.1576547,0.66724 -0.6429513,1.15254 -1.6015968,0.87346 l 0.2428421,-0.4853 c 0.4004953,0.13338 0.6310006,0.0119 0.7524217,-0.42478 l 0.011946,-0.0605 c -0.1819378,0.25479 -0.3638756,0.25479 -0.5581487,0.25479 -0.3395925,0 -0.55815,-0.25479 -0.5458148,-0.70386 0.011946,-0.60671 0.3762109,-1.24967 0.9220257,-1.24967 0.2305068,0 0.4367291,0.0605 0.5095811,0.25479 l 0.072852,-0.21855 0.6067191,0.0119 z m -1.0553959,0.41245 c -0.2547913,0 -0.4124446,0.46101 -0.4124446,0.8006 0,0.14571 0.060517,0.24284 0.1819378,0.24284 0.2667405,0 0.436729,-0.48529 0.436729,-0.76437 0,-0.18194 -0.097137,-0.29102 -0.2062222,-0.27907"
         style="fill:#0064a6;stroke-width:0.03854624"
         id="path34439" />
      <path
         inkscape:connector-curvature="0"
         d="m 8.1294433,152.06447 c -0.1819392,0.32764 -0.4004968,0.59438 -0.8615089,0.59438 -0.1333702,0 -0.2667405,0 -0.4004953,-0.0243 l 0.2185561,-0.4853 c 0.036234,0.0119 0.084803,0.0119 0.121421,0 0.1819393,0 0.3395926,-0.13337 0.3881616,-0.30336 l -0.2790758,-1.9169 h 0.6795711 l 0.072852,1.21343 h 0.011946 l 0.5824332,-1.21343 h 0.6552866 z"
         style="fill:#0064a6;stroke-width:0.03854624"
         id="path34441" />
      <path
         inkscape:connector-curvature="0"
         d="m 13.820024,150.47521 c -0.07285,-0.012 -0.13337,-0.0243 -0.206222,-0.0243 -0.218558,0.0243 -0.400495,0.19428 -0.436729,0.41245 l -0.230507,0.98293 h -0.655285 l 0.303359,-1.35876 c 0.06052,-0.27907 0.09714,-0.46101 0.109085,-0.55815 h 0.618667 c 0,0.0729 -0.03623,0.21856 -0.06052,0.31531 h 0.01195 c 0.13337,-0.21856 0.266739,-0.36388 0.509581,-0.36388 0.04857,0 0.109086,0 0.157653,0.012 l -0.121419,0.58243 z"
         style="fill:#0064a6;stroke-width:0.03854624"
         id="path34443" />
      <path
         inkscape:connector-curvature="0"
         d="m 14.838802,149.89277 c 0.497632,0 0.849173,0.30336 0.849173,0.76438 -0.01195,0.64295 -0.424779,1.23772 -1.103964,1.23772 -0.509582,0 -0.849174,-0.27908 -0.837225,-0.76438 -0.01195,-0.631 0.400497,-1.23772 1.092016,-1.23772 m -0.242841,1.55303 c 0.279074,0 0.424779,-0.43673 0.436728,-0.8006 0,-0.21856 -0.09714,-0.30336 -0.206223,-0.30336 -0.279074,0 -0.424778,0.44906 -0.436729,0.8006 -0.01195,0.21856 0.09714,0.30336 0.206224,0.30336"
         style="fill:#0064a6;stroke-width:0.03854624"
         id="path34445" />
      <path
         inkscape:connector-curvature="0"
         d="m 16.683239,151.8463 c 0,-0.0729 0.03623,-0.21856 0.06052,-0.31531 h -0.01195 c -0.181939,0.26674 -0.376212,0.36388 -0.582435,0.36388 -0.254789,0.0119 -0.461012,-0.18194 -0.473347,-0.42478 v -0.0362 c 0,-0.0729 0.01195,-0.13337 0.02429,-0.20622 l 0.291023,-1.2859 h 0.655287 l -0.254792,1.12825 c -0.01195,0.0362 -0.01195,0.0848 -0.01195,0.12142 0,0.0971 0.04857,0.16999 0.13337,0.16999 0.169989,0 0.254792,-0.10909 0.291024,-0.30336 l 0.254791,-1.12825 h 0.655287 l -0.351928,1.52874 c -0.03623,0.13337 -0.04857,0.25479 -0.06052,0.38816 0,0 -0.618667,0 -0.618667,0 z"
         style="fill:#0064a6;stroke-width:0.03854624"
         id="path34447" />
      <path
         inkscape:connector-curvature="0"
         d="m 18.236267,151.55489 v 0 c -0.02428,0.0848 -0.03623,0.19427 -0.07285,0.33959 l -0.169989,0.74009 H 17.33814 l 0.545815,-2.39025 c 0.02428,-0.10909 0.03623,-0.20623 0.04857,-0.31531 h 0.642951 c -0.01195,0.0971 -0.02429,0.19427 -0.04857,0.29102 h 0.01195 c 0.109086,-0.20622 0.327643,-0.32764 0.570099,-0.33959 0.303359,0 0.545815,0.24284 0.545815,0.72814 -0.01195,0.72814 -0.449063,1.26162 -0.934361,1.26162 -0.230506,0.0243 -0.424779,-0.10909 -0.485296,-0.31531 m 0.558148,-1.18915 c -0.266739,0 -0.436729,0.50958 -0.436729,0.8006 0,0.18194 0.09714,0.27908 0.206224,0.27908 0.242841,0 0.412445,-0.46102 0.412445,-0.81294 0,-0.16999 -0.07285,-0.26674 -0.18194,-0.26674"
         style="fill:#0064a6;stroke-width:0.03854624"
         id="path34449" />
      <path
         inkscape:connector-curvature="0"
         d="M 1.0076389,148.84933 H 0.24326652 l -0.41244456,-0.98293 h -0.0119463 l -0.21855757,0.98293 H -1.0669178 l 0.57009936,-2.55986 h 0.99487915 c 0.50958109,0 0.83722439,0.24284 0.71580339,0.78866 -0.072852,0.36387 -0.35192782,0.65528 -0.71580339,0.72814 l 0.50958109,1.04344 z m -1.09201569,-1.41966 h 0.06051821 c 0.21855756,0 0.47334738,-0.0362 0.53386559,-0.31531 0.0605168,-0.27907 -0.16998857,-0.31531 -0.38816152,-0.31531 H 0.06132874 l -0.14570553,0.631 z"
         style="fill:#0064a6;stroke-width:0.03854624"
         id="path34451" />
    </g>
  </g>
</svg>
